<svg width="29" height="29" viewBox="0 0 29 29" fill="none" xmlns="http://www.w3.org/2000/svg">
<path d="M21.9995 13.9999H9.4135L13.7065 9.70687C14.0965 9.31687 14.0965 8.68388 13.7065 8.29288C13.3165 7.90188 12.6835 7.90288 12.2925 8.29288L6.2925 14.2929C5.9025 14.6829 5.9025 15.3159 6.2925 15.7069L12.2925 21.7069C12.4875 21.9019 12.7425 21.9999 12.9995 21.9999C13.2565 21.9999 13.5115 21.9019 13.7065 21.7069C14.0965 21.3169 14.0965 20.6839 13.7065 20.2929L9.4135 15.9999H21.9995C22.5525 15.9999 22.9995 15.5529 22.9995 14.9999C22.9995 14.4469 22.5525 13.9999 21.9995 13.9999Z" fill="#1DA7F2"/>
</svg>
