<svg width="24" height="24" viewBox="0 0 24 24" fill="none" xmlns="http://www.w3.org/2000/svg">
<path d="M15.6921 11.2049L22.0751 3.98894C22.5251 3.53894 22.5251 2.80894 22.0751 2.36094C21.6251 1.91094 20.8971 1.91094 20.4481 2.36094L13.2161 8.76294C13.2161 8.76294 13.9981 8.86894 14.8111 9.69294C15.3591 10.2509 15.6931 11.2029 15.6931 11.2029L15.6921 11.2049Z" fill="#C8C8C8"/>
<path d="M17.4501 22.28H3.67309C2.52509 22.28 1.59009 21.334 1.59009 20.17V7.92596C1.59009 6.76096 2.52409 5.81396 3.67209 5.81396H9.50809C9.92209 5.81396 10.2581 6.14996 10.2581 6.56396C10.2581 6.97796 9.92209 7.31396 9.50809 7.31396H3.67209C3.35209 7.31396 3.08909 7.58796 3.08909 7.92596V20.17C3.08909 20.506 3.34909 20.78 3.67109 20.78H17.4511C17.7711 20.78 18.0341 20.507 18.0341 20.17V13.89C18.0341 13.475 18.3701 13.14 18.7841 13.14C19.1981 13.14 19.5341 13.475 19.5341 13.89V20.17C19.5341 21.333 18.6001 22.28 17.4501 22.28Z" fill="#C8C8C8"/>
<path d="M8.17999 16.9899C7.98999 17.1439 7.70399 17.0219 7.67599 16.7799C7.53899 15.5659 7.44199 12.7269 9.15899 10.8369C10.067 9.8369 12.179 9.3169 13.634 10.6389C15.089 11.9609 14.774 14.1119 13.864 15.1119C11.794 17.2619 10.436 15.1699 8.17799 16.9899H8.17999Z" fill="#1DA7F2"/>
</svg>
