<svg width="29" height="29" viewBox="0 0 29 29" fill="none" xmlns="http://www.w3.org/2000/svg">
<path d="M25.375 19.3333V9.66667C25.3746 9.24287 25.2627 8.82664 25.0506 8.45974C24.8385 8.09283 24.5337 7.78815 24.1667 7.57625L15.7083 2.74292C15.341 2.53081 14.9242 2.41914 14.5 2.41914C14.0758 2.41914 13.659 2.53081 13.2917 2.74292L4.83333 7.57625C4.46632 7.78815 4.16148 8.09283 3.94939 8.45974C3.73731 8.82664 3.62543 9.24287 3.625 9.66667V19.3333C3.62543 19.7571 3.73731 20.1734 3.94939 20.5403C4.16148 20.9072 4.46632 21.2119 4.83333 21.4237L13.2917 26.2571C13.659 26.4692 14.0758 26.5809 14.5 26.5809C14.9242 26.5809 15.341 26.4692 15.7083 26.2571L24.1667 21.4237C24.5337 21.2119 24.8385 20.9072 25.0506 20.5403C25.2627 20.1734 25.3746 19.7571 25.375 19.3333Z" stroke="white" stroke-width="2" stroke-linecap="round" stroke-linejoin="round"/>
<path d="M3.95123 8.41L14.5 14.5121L25.0487 8.41" stroke="white" stroke-width="2" stroke-linecap="round" stroke-linejoin="round"/>
<path d="M14.5 26.68V14.5" stroke="white" stroke-width="2" stroke-linecap="round" stroke-linejoin="round"/>
</svg>
