<svg width="29" height="29" viewBox="0 0 29 29" fill="none" xmlns="http://www.w3.org/2000/svg">
<path d="M5.55557 17.1111C6.96697 17.1111 8.11113 15.967 8.11113 14.5556C8.11113 13.1442 6.96697 12 5.55557 12C4.14417 12 3 13.1442 3 14.5556C3 15.967 4.14417 17.1111 5.55557 17.1111Z" fill="#1DA7F2"/>
<path d="M14.4999 17.1111C15.9113 17.1111 17.0555 15.967 17.0555 14.5556C17.0555 13.1442 15.9113 12 14.4999 12C13.0885 12 11.9443 13.1442 11.9443 14.5556C11.9443 15.967 13.0885 17.1111 14.4999 17.1111Z" fill="#1DA7F2"/>
<path d="M23.4445 17.1111C24.8559 17.1111 26 15.967 26 14.5556C26 13.1442 24.8559 12 23.4445 12C22.0331 12 20.8889 13.1442 20.8889 14.5556C20.8889 15.967 22.0331 17.1111 23.4445 17.1111Z" fill="#1DA7F2"/>
</svg>
