<svg width="29" height="29" viewBox="0 0 29 29" fill="none" xmlns="http://www.w3.org/2000/svg">
<path d="M20.779 16.3839C21.8193 16.3839 22.6627 15.5405 22.6627 14.5002C22.6627 13.4598 21.8193 12.6165 20.779 12.6165C19.7386 12.6165 18.8953 13.4598 18.8953 14.5002C18.8953 15.5405 19.7386 16.3839 20.779 16.3839Z" fill="white"/>
<path d="M14.5002 16.3839C15.5405 16.3839 16.3839 15.5405 16.3839 14.5002C16.3839 13.4598 15.5405 12.6165 14.5002 12.6165C13.4598 12.6165 12.6165 13.4598 12.6165 14.5002C12.6165 15.5405 13.4598 16.3839 14.5002 16.3839Z" fill="white"/>
<path d="M8.22088 16.3839C9.26123 16.3839 10.1046 15.5405 10.1046 14.5002C10.1046 13.4598 9.26123 12.6165 8.22088 12.6165C7.18053 12.6165 6.33716 13.4598 6.33716 14.5002C6.33716 15.5405 7.18053 16.3839 8.22088 16.3839Z" fill="white"/>
<path d="M14.5 28C7.05553 28 1 21.9445 1 14.5C1 7.05553 7.05553 1 14.5 1C21.9445 1 28 7.05553 28 14.5C28 21.9445 21.9445 28 14.5 28ZM14.5 2.88372C8.09535 2.88372 2.88372 8.09535 2.88372 14.5C2.88372 20.9047 8.09535 26.1163 14.5 26.1163C20.9047 26.1163 26.1163 20.9047 26.1163 14.5C26.1163 8.09535 20.9047 2.88372 14.5 2.88372Z" fill="white"/>
</svg>
