<svg width="512" height="512" viewBox="0 0 512 512" fill="none" xmlns="http://www.w3.org/2000/svg">
<path d="M512 268C512 285.9 507.7 302.5 499.1 317.7C490.5 332.9 479 344.8 464.5 353.1C464.9 355.8 465.1 360 465.1 365.7C465.1 392.8 456 415.8 438 434.8C419.9 453.9 398.1 463.4 372.6 463.4C361.2 463.4 350.3 461.3 340 457.1C332 473.5 320.5 486.7 305.4 496.8C290.4 507 273.9 512 256 512C237.7 512 221.1 507.1 206.3 497.1C191.4 487.2 180 473.9 172 457.1C161.7 461.3 150.9 463.4 139.4 463.4C113.9 463.4 92 453.9 73.7 434.8C55.4 415.8 46.3 392.7 46.3 365.7C46.3 362.7 46.7 358.5 47.4 353.1C32.9 344.7 21.4 332.9 12.8 317.7C4.3 302.5 0 285.9 0 268C0 249 4.8 231.5 14.3 215.7C23.8 199.9 36.6 188.2 52.6 180.6C48.4 169.2 46.3 157.7 46.3 146.3C46.3 119.3 55.4 96.2 73.7 77.2C92 58.2 113.9 48.6 139.4 48.6C150.8 48.6 161.7 50.7 172 54.9C180 38.5 191.5 25.3 206.6 15.2C221.6 5.1 238.1 0 256 0C273.9 0 290.4 5.1 305.4 15.1C320.4 25.2 332 38.4 340 54.8C350.3 50.6 361.1 48.5 372.6 48.5C398.1 48.5 419.9 58 438 77.1C456.1 96.2 465.1 119.2 465.1 146.2C465.1 158.8 463.2 170.2 459.4 180.5C475.4 188.1 488.2 199.8 497.7 215.6C507.2 231.5 512 249 512 268ZM245.1 345.1L350.8 186.8C353.5 182.6 354.3 178 353.4 173.1C352.4 168.2 349.9 164.3 345.7 161.7C341.5 159 336.9 158.1 332 158.8C327 159.6 323 162 320 166.2L226.9 306.2L184 263.4C180.2 259.6 175.8 257.8 170.9 258C165.9 258.2 161.6 260 157.8 263.4C154.4 266.8 152.7 271.1 152.7 276.3C152.7 281.4 154.4 285.7 157.8 289.2L216.7 348.1L219.6 350.4C223 352.7 226.5 353.8 229.9 353.8C236.6 353.7 241.7 350.9 245.1 345.1Z" fill="white"/>
</svg>
