<svg width="191" height="44" viewBox="0 0 191 44" fill="none" xmlns="http://www.w3.org/2000/svg">
<g clip-path="url(#clip0)">
<path d="M44 8.35451C42.3812 9.07317 40.6413 9.55717 38.8153 9.77534C40.6798 8.65884 42.1117 6.88967 42.7845 4.78134C41.041 5.81534 39.1087 6.567 37.0517 6.97217C35.4072 5.21767 33.0587 4.12134 30.4627 4.12134C24.6345 4.12134 20.3518 9.55901 21.6682 15.2038C14.168 14.828 7.51667 11.2347 3.0635 5.77317C0.6985 9.83034 1.837 15.1378 5.85567 17.8255C4.378 17.7778 2.98467 17.3727 1.76917 16.6962C1.67017 20.878 4.66767 24.7903 9.009 25.6612C7.7385 26.0058 6.347 26.0865 4.93167 25.8152C6.07933 29.4012 9.41233 32.01 13.365 32.0833C9.57 35.0588 4.78867 36.388 0 35.8233C3.99483 38.3845 8.74133 39.8787 13.838 39.8787C30.5983 39.8787 40.0675 25.7235 39.4955 13.0277C41.2592 11.7535 42.79 10.164 44 8.35451Z" fill="#49487F"/>
</g>
<path d="M75.044 35L70.184 27.98H69.896H64.82V35H58.988V9.8H69.896C72.128 9.8 74.06 10.172 75.692 10.916C77.348 11.66 78.62 12.716 79.508 14.084C80.396 15.452 80.84 17.072 80.84 18.944C80.84 20.816 80.384 22.436 79.472 23.804C78.584 25.148 77.312 26.18 75.656 26.9L81.308 35H75.044ZM74.936 18.944C74.936 17.528 74.48 16.448 73.568 15.704C72.656 14.936 71.324 14.552 69.572 14.552H64.82V23.336H69.572C71.324 23.336 72.656 22.952 73.568 22.184C74.48 21.416 74.936 20.336 74.936 18.944ZM104.037 25.388C104.037 25.46 104.001 25.964 103.929 26.9H89.2767C89.5407 28.1 90.1647 29.048 91.1487 29.744C92.1327 30.44 93.3567 30.788 94.8207 30.788C95.8287 30.788 96.7167 30.644 97.4847 30.356C98.2767 30.044 99.0087 29.564 99.6807 28.916L102.669 32.156C100.845 34.244 98.1807 35.288 94.6767 35.288C92.4927 35.288 90.5607 34.868 88.8807 34.028C87.2007 33.164 85.9047 31.976 84.9927 30.464C84.0807 28.952 83.6247 27.236 83.6247 25.316C83.6247 23.42 84.0687 21.716 84.9567 20.204C85.8687 18.668 87.1047 17.48 88.6647 16.64C90.2487 15.776 92.0127 15.344 93.9567 15.344C95.8527 15.344 97.5687 15.752 99.1047 16.568C100.641 17.384 101.841 18.56 102.705 20.096C103.593 21.608 104.037 23.372 104.037 25.388ZM93.9927 19.592C92.7207 19.592 91.6527 19.952 90.7887 20.672C89.9247 21.392 89.3967 22.376 89.2047 23.624H98.7447C98.5527 22.4 98.0247 21.428 97.1607 20.708C96.2967 19.964 95.2407 19.592 93.9927 19.592ZM115.06 15.344C118.06 15.344 120.364 16.064 121.972 17.504C123.58 18.92 124.384 21.068 124.384 23.948V35H119.128V32.588C118.072 34.388 116.104 35.288 113.224 35.288C111.736 35.288 110.44 35.036 109.336 34.532C108.256 34.028 107.428 33.332 106.852 32.444C106.276 31.556 105.988 30.548 105.988 29.42C105.988 27.62 106.66 26.204 108.004 25.172C109.372 24.14 111.472 23.624 114.304 23.624H118.768C118.768 22.4 118.396 21.464 117.652 20.816C116.908 20.144 115.792 19.808 114.304 19.808C113.272 19.808 112.252 19.976 111.244 20.312C110.26 20.624 109.42 21.056 108.724 21.608L106.708 17.684C107.764 16.94 109.024 16.364 110.488 15.956C111.976 15.548 113.5 15.344 115.06 15.344ZM114.628 31.508C115.588 31.508 116.44 31.292 117.184 30.86C117.928 30.404 118.456 29.744 118.768 28.88V26.9H114.916C112.612 26.9 111.46 27.656 111.46 29.168C111.46 29.888 111.736 30.464 112.288 30.896C112.864 31.304 113.644 31.508 114.628 31.508ZM149.406 8.288V35H144.042V32.768C142.65 34.448 140.634 35.288 137.994 35.288C136.17 35.288 134.514 34.88 133.026 34.064C131.562 33.248 130.41 32.084 129.57 30.572C128.73 29.06 128.31 27.308 128.31 25.316C128.31 23.324 128.73 21.572 129.57 20.06C130.41 18.548 131.562 17.384 133.026 16.568C134.514 15.752 136.17 15.344 137.994 15.344C140.466 15.344 142.398 16.124 143.79 17.684V8.288H149.406ZM138.966 30.68C140.382 30.68 141.558 30.2 142.494 29.24C143.43 28.256 143.898 26.948 143.898 25.316C143.898 23.684 143.43 22.388 142.494 21.428C141.558 20.444 140.382 19.952 138.966 19.952C137.526 19.952 136.338 20.444 135.402 21.428C134.466 22.388 133.998 23.684 133.998 25.316C133.998 26.948 134.466 28.256 135.402 29.24C136.338 30.2 137.526 30.68 138.966 30.68ZM173.576 25.388C173.576 25.46 173.54 25.964 173.468 26.9H158.816C159.08 28.1 159.704 29.048 160.688 29.744C161.672 30.44 162.896 30.788 164.36 30.788C165.368 30.788 166.256 30.644 167.024 30.356C167.816 30.044 168.548 29.564 169.22 28.916L172.208 32.156C170.384 34.244 167.72 35.288 164.216 35.288C162.032 35.288 160.1 34.868 158.42 34.028C156.74 33.164 155.444 31.976 154.532 30.464C153.62 28.952 153.164 27.236 153.164 25.316C153.164 23.42 153.608 21.716 154.496 20.204C155.408 18.668 156.644 17.48 158.204 16.64C159.788 15.776 161.552 15.344 163.496 15.344C165.392 15.344 167.108 15.752 168.644 16.568C170.18 17.384 171.38 18.56 172.244 20.096C173.132 21.608 173.576 23.372 173.576 25.388ZM163.532 19.592C162.26 19.592 161.192 19.952 160.328 20.672C159.464 21.392 158.936 22.376 158.744 23.624H168.284C168.092 22.4 167.564 21.428 166.7 20.708C165.836 19.964 164.78 19.592 163.532 19.592ZM182.679 18.188C183.351 17.252 184.251 16.544 185.379 16.064C186.531 15.584 187.851 15.344 189.339 15.344V20.528C188.715 20.48 188.295 20.456 188.079 20.456C186.471 20.456 185.211 20.912 184.299 21.824C183.387 22.712 182.931 24.056 182.931 25.856V35H177.315V15.632H182.679V18.188Z" fill="#49487F"/>
<defs>
<clipPath id="clip0">
<rect width="44" height="44" fill="white"/>
</clipPath>
</defs>
</svg>
