<svg width="161" height="44" viewBox="0 0 161 44" fill="none" xmlns="http://www.w3.org/2000/svg">
<path d="M6.012 19.772C6.612 18.5 7.5 17.54 8.676 16.892C9.876 16.244 11.352 15.92 13.104 15.92V18.404L12.492 18.368C10.5 18.368 8.94 18.98 7.812 20.204C6.684 21.428 6.12 23.144 6.12 25.352V35H3.564V16.064H6.012V19.772ZM34.0442 26.324H18.2042C18.3482 28.292 19.1042 29.888 20.4722 31.112C21.8402 32.312 23.5682 32.912 25.6562 32.912C26.8322 32.912 27.9122 32.708 28.8962 32.3C29.8802 31.868 30.7322 31.244 31.4522 30.428L32.8922 32.084C32.0522 33.092 30.9962 33.86 29.7242 34.388C28.4762 34.916 27.0962 35.18 25.5842 35.18C23.6402 35.18 21.9122 34.772 20.4002 33.956C18.9122 33.116 17.7482 31.964 16.9082 30.5C16.0682 29.036 15.6482 27.38 15.6482 25.532C15.6482 23.684 16.0442 22.028 16.8362 20.564C17.6522 19.1 18.7562 17.96 20.1482 17.144C21.5642 16.328 23.1482 15.92 24.9002 15.92C26.6522 15.92 28.2242 16.328 29.6162 17.144C31.0082 17.96 32.1002 19.1 32.8922 20.564C33.6842 22.004 34.0802 23.66 34.0802 25.532L34.0442 26.324ZM24.9002 18.116C23.0762 18.116 21.5402 18.704 20.2922 19.88C19.0682 21.032 18.3722 22.544 18.2042 24.416H31.6322C31.4642 22.544 30.7562 21.032 29.5082 19.88C28.2842 18.704 26.7482 18.116 24.9002 18.116ZM45.3794 15.92C47.8514 15.92 49.7474 16.544 51.0674 17.792C52.3874 19.016 53.0474 20.84 53.0474 23.264V35H50.5994V32.048C50.0234 33.032 49.1714 33.8 48.0434 34.352C46.9394 34.904 45.6194 35.18 44.0834 35.18C41.9714 35.18 40.2914 34.676 39.0434 33.668C37.7954 32.66 37.1714 31.328 37.1714 29.672C37.1714 28.064 37.7474 26.768 38.8994 25.784C40.0754 24.8 41.9354 24.308 44.4794 24.308H50.4914V23.156C50.4914 21.524 50.0354 20.288 49.1234 19.448C48.2114 18.584 46.8794 18.152 45.1274 18.152C43.9274 18.152 42.7754 18.356 41.6714 18.764C40.5674 19.148 39.6194 19.688 38.8274 20.384L37.6754 18.476C38.6354 17.66 39.7874 17.036 41.1314 16.604C42.4754 16.148 43.8914 15.92 45.3794 15.92ZM44.4794 33.164C45.9194 33.164 47.1554 32.84 48.1874 32.192C49.2194 31.52 49.9874 30.56 50.4914 29.312V26.216H44.5514C41.3114 26.216 39.6914 27.344 39.6914 29.6C39.6914 30.704 40.1114 31.58 40.9514 32.228C41.7914 32.852 42.9674 33.164 44.4794 33.164ZM77.3401 8.288V35H74.8921V31.256C74.1241 32.528 73.1041 33.5 71.8321 34.172C70.5841 34.844 69.1681 35.18 67.5841 35.18C65.8081 35.18 64.2001 34.772 62.7601 33.956C61.3201 33.14 60.1921 32 59.3761 30.536C58.5601 29.072 58.1521 27.404 58.1521 25.532C58.1521 23.66 58.5601 21.992 59.3761 20.528C60.1921 19.064 61.3201 17.936 62.7601 17.144C64.2001 16.328 65.8081 15.92 67.5841 15.92C69.1201 15.92 70.5001 16.244 71.7241 16.892C72.9721 17.516 73.9921 18.44 74.7841 19.664V8.288H77.3401ZM67.8001 32.912C69.1201 32.912 70.3081 32.612 71.3641 32.012C72.4441 31.388 73.2841 30.512 73.8841 29.384C74.5081 28.256 74.8201 26.972 74.8201 25.532C74.8201 24.092 74.5081 22.808 73.8841 21.68C73.2841 20.552 72.4441 19.688 71.3641 19.088C70.3081 18.464 69.1201 18.152 67.8001 18.152C66.4561 18.152 65.2441 18.464 64.1641 19.088C63.1081 19.688 62.2681 20.552 61.6441 21.68C61.0441 22.808 60.7441 24.092 60.7441 25.532C60.7441 26.972 61.0441 28.256 61.6441 29.384C62.2681 30.512 63.1081 31.388 64.1641 32.012C65.2441 32.612 66.4561 32.912 67.8001 32.912Z" fill="white"/>
<path d="M92.528 29.792H89.504V35H83.96V15.4H92.92C94.6933 15.4 96.2333 15.6987 97.54 16.296C98.8467 16.8747 99.8547 17.7147 100.564 18.816C101.273 19.8987 101.628 21.1773 101.628 22.652C101.628 24.0707 101.292 25.312 100.62 26.376C99.9667 27.4213 99.024 28.2427 97.792 28.84L102.02 35H96.084L92.528 29.792ZM96.028 22.652C96.028 21.7373 95.7387 21.028 95.16 20.524C94.5813 20.02 93.7227 19.768 92.584 19.768H89.504V25.508H92.584C93.7227 25.508 94.5813 25.2653 95.16 24.78C95.7387 24.276 96.028 23.5667 96.028 22.652ZM114.571 35.392C112.499 35.392 110.632 34.9533 108.971 34.076C107.328 33.1987 106.031 31.9853 105.079 30.436C104.145 28.8867 103.679 27.1413 103.679 25.2C103.679 23.2587 104.145 21.5133 105.079 19.964C106.031 18.4147 107.328 17.2013 108.971 16.324C110.632 15.4467 112.499 15.008 114.571 15.008C116.643 15.008 118.5 15.4467 120.143 16.324C121.804 17.2013 123.101 18.4147 124.035 19.964C124.987 21.5133 125.463 23.2587 125.463 25.2C125.463 27.1413 124.987 28.8867 124.035 30.436C123.101 31.9853 121.804 33.1987 120.143 34.076C118.5 34.9533 116.643 35.392 114.571 35.392ZM114.571 30.8C115.56 30.8 116.456 30.5667 117.259 30.1C118.061 29.6333 118.696 28.98 119.163 28.14C119.629 27.2813 119.863 26.3013 119.863 25.2C119.863 24.0987 119.629 23.128 119.163 22.288C118.696 21.4293 118.061 20.7667 117.259 20.3C116.456 19.8333 115.56 19.6 114.571 19.6C113.581 19.6 112.685 19.8333 111.883 20.3C111.08 20.7667 110.445 21.4293 109.979 22.288C109.512 23.128 109.279 24.0987 109.279 25.2C109.279 26.3013 109.512 27.2813 109.979 28.14C110.445 28.98 111.08 29.6333 111.883 30.1C112.685 30.5667 113.581 30.8 114.571 30.8ZM128.366 15.4H133.91V30.604H143.262V35H128.366V15.4ZM145.456 15.4H151V30.604H160.352V35H145.456V15.4Z" fill="white"/>
</svg>
