<svg width="205" height="44" viewBox="0 0 205 44" fill="none" xmlns="http://www.w3.org/2000/svg">
<path d="M13.536 33.848C13.056 34.28 12.456 34.616 11.736 34.856C11.04 35.072 10.308 35.18 9.54 35.18C7.764 35.18 6.396 34.7 5.436 33.74C4.476 32.78 3.996 31.424 3.996 29.672V18.224H0.612V16.064H3.996V11.924H6.552V16.064H12.312V18.224H6.552V29.528C6.552 30.656 6.828 31.52 7.38 32.12C7.956 32.696 8.772 32.984 9.828 32.984C10.356 32.984 10.86 32.9 11.34 32.732C11.844 32.564 12.276 32.324 12.636 32.012L13.536 33.848ZM27.837 15.92C30.213 15.92 32.097 16.616 33.489 18.008C34.905 19.376 35.613 21.38 35.613 24.02V35H33.057V24.272C33.057 22.304 32.565 20.804 31.581 19.772C30.597 18.74 29.193 18.224 27.369 18.224C25.329 18.224 23.709 18.836 22.509 20.06C21.333 21.26 20.745 22.928 20.745 25.064V35H18.189V8.288H20.745V19.376C21.441 18.272 22.401 17.42 23.625 16.82C24.849 16.22 26.253 15.92 27.837 15.92ZM45.0003 19.772C45.6003 18.5 46.4883 17.54 47.6643 16.892C48.8643 16.244 50.3403 15.92 52.0923 15.92V18.404L51.4803 18.368C49.4883 18.368 47.9283 18.98 46.8003 20.204C45.6723 21.428 45.1083 23.144 45.1083 25.352V35H42.5523V16.064H45.0003V19.772ZM73.0325 26.324H57.1925C57.3365 28.292 58.0925 29.888 59.4605 31.112C60.8285 32.312 62.5565 32.912 64.6445 32.912C65.8205 32.912 66.9005 32.708 67.8845 32.3C68.8685 31.868 69.7205 31.244 70.4405 30.428L71.8805 32.084C71.0405 33.092 69.9845 33.86 68.7125 34.388C67.4645 34.916 66.0845 35.18 64.5725 35.18C62.6285 35.18 60.9005 34.772 59.3885 33.956C57.9005 33.116 56.7365 31.964 55.8965 30.5C55.0565 29.036 54.6365 27.38 54.6365 25.532C54.6365 23.684 55.0325 22.028 55.8245 20.564C56.6405 19.1 57.7445 17.96 59.1365 17.144C60.5525 16.328 62.1365 15.92 63.8885 15.92C65.6405 15.92 67.2125 16.328 68.6045 17.144C69.9965 17.96 71.0885 19.1 71.8805 20.564C72.6725 22.004 73.0685 23.66 73.0685 25.532L73.0325 26.324ZM63.8885 18.116C62.0645 18.116 60.5285 18.704 59.2805 19.88C58.0565 21.032 57.3605 22.544 57.1925 24.416H70.6205C70.4525 22.544 69.7445 21.032 68.4965 19.88C67.2725 18.704 65.7365 18.116 63.8885 18.116ZM84.3677 15.92C86.8397 15.92 88.7357 16.544 90.0557 17.792C91.3757 19.016 92.0357 20.84 92.0357 23.264V35H89.5877V32.048C89.0117 33.032 88.1597 33.8 87.0317 34.352C85.9277 34.904 84.6077 35.18 83.0717 35.18C80.9597 35.18 79.2797 34.676 78.0317 33.668C76.7837 32.66 76.1597 31.328 76.1597 29.672C76.1597 28.064 76.7357 26.768 77.8877 25.784C79.0637 24.8 80.9237 24.308 83.4677 24.308H89.4797V23.156C89.4797 21.524 89.0237 20.288 88.1117 19.448C87.1997 18.584 85.8677 18.152 84.1157 18.152C82.9157 18.152 81.7637 18.356 80.6597 18.764C79.5557 19.148 78.6077 19.688 77.8157 20.384L76.6637 18.476C77.6237 17.66 78.7757 17.036 80.1197 16.604C81.4637 16.148 82.8797 15.92 84.3677 15.92ZM83.4677 33.164C84.9077 33.164 86.1437 32.84 87.1757 32.192C88.2077 31.52 88.9757 30.56 89.4797 29.312V26.216H83.5397C80.2997 26.216 78.6797 27.344 78.6797 29.6C78.6797 30.704 79.0997 31.58 79.9397 32.228C80.7797 32.852 81.9557 33.164 83.4677 33.164ZM116.328 8.288V35H113.88V31.256C113.112 32.528 112.092 33.5 110.82 34.172C109.572 34.844 108.156 35.18 106.572 35.18C104.796 35.18 103.188 34.772 101.748 33.956C100.308 33.14 99.1804 32 98.3644 30.536C97.5484 29.072 97.1404 27.404 97.1404 25.532C97.1404 23.66 97.5484 21.992 98.3644 20.528C99.1804 19.064 100.308 17.936 101.748 17.144C103.188 16.328 104.796 15.92 106.572 15.92C108.108 15.92 109.488 16.244 110.712 16.892C111.96 17.516 112.98 18.44 113.772 19.664V8.288H116.328ZM106.788 32.912C108.108 32.912 109.296 32.612 110.352 32.012C111.432 31.388 112.272 30.512 112.872 29.384C113.496 28.256 113.808 26.972 113.808 25.532C113.808 24.092 113.496 22.808 112.872 21.68C112.272 20.552 111.432 19.688 110.352 19.088C109.296 18.464 108.108 18.152 106.788 18.152C105.444 18.152 104.232 18.464 103.152 19.088C102.096 19.688 101.256 20.552 100.632 21.68C100.032 22.808 99.7324 24.092 99.7324 25.532C99.7324 26.972 100.032 28.256 100.632 29.384C101.256 30.512 102.096 31.388 103.152 32.012C104.232 32.612 105.444 32.912 106.788 32.912Z" fill="white"/>
<path d="M131.28 29.42H128.04V35H122.1V14H131.7C133.6 14 135.25 14.32 136.65 14.96C138.05 15.58 139.13 16.48 139.89 17.66C140.65 18.82 141.03 20.19 141.03 21.77C141.03 23.29 140.67 24.62 139.95 25.76C139.25 26.88 138.24 27.76 136.92 28.4L141.45 35H135.09L131.28 29.42ZM135.03 21.77C135.03 20.79 134.72 20.03 134.1 19.49C133.48 18.95 132.56 18.68 131.34 18.68H128.04V24.83H131.34C132.56 24.83 133.48 24.57 134.1 24.05C134.72 23.51 135.03 22.75 135.03 21.77ZM154.897 35.42C152.677 35.42 150.677 34.95 148.897 34.01C147.137 33.07 145.747 31.77 144.727 30.11C143.727 28.45 143.227 26.58 143.227 24.5C143.227 22.42 143.727 20.55 144.727 18.89C145.747 17.23 147.137 15.93 148.897 14.99C150.677 14.05 152.677 13.58 154.897 13.58C157.117 13.58 159.107 14.05 160.867 14.99C162.647 15.93 164.037 17.23 165.037 18.89C166.057 20.55 166.567 22.42 166.567 24.5C166.567 26.58 166.057 28.45 165.037 30.11C164.037 31.77 162.647 33.07 160.867 34.01C159.107 34.95 157.117 35.42 154.897 35.42ZM154.897 30.5C155.957 30.5 156.917 30.25 157.777 29.75C158.637 29.25 159.317 28.55 159.817 27.65C160.317 26.73 160.567 25.68 160.567 24.5C160.567 23.32 160.317 22.28 159.817 21.38C159.317 20.46 158.637 19.75 157.777 19.25C156.917 18.75 155.957 18.5 154.897 18.5C153.837 18.5 152.877 18.75 152.017 19.25C151.157 19.75 150.477 20.46 149.977 21.38C149.477 22.28 149.227 23.32 149.227 24.5C149.227 25.68 149.477 26.73 149.977 27.65C150.477 28.55 151.157 29.25 152.017 29.75C152.877 30.25 153.837 30.5 154.897 30.5ZM169.678 14H175.618V30.29H185.638V35H169.678V14ZM187.989 14H193.929V30.29H203.949V35H187.989V14Z" fill="white"/>
</svg>
