<svg width="20" height="20" viewBox="0 0 20 20" fill="none" xmlns="http://www.w3.org/2000/svg">
<path d="M10.001 19.8218H9.98706C7.41666 19.774 0 13.0728 0 6.72594C0 3.67688 2.51269 1 5.37665 1C7.65549 1 9.18798 2.5723 10 3.71669C10.81 2.57429 12.3425 1 14.6224 1C17.4883 1 20 3.67688 20 6.72694C20 13.0718 12.5823 19.773 10.0119 19.8198H10.001V19.8218ZM5.37765 2.49368C3.30779 2.49368 1.49368 4.47199 1.49368 6.72793C1.49368 12.4399 8.49338 18.2674 10.002 18.3291C11.5126 18.2674 18.5103 12.4409 18.5103 6.72793C18.5103 4.47199 16.6962 2.49368 14.6263 2.49368C12.1107 2.49368 10.7055 5.41536 10.6936 5.44422C10.4647 6.00348 9.54324 6.00348 9.31336 5.44422C9.29943 5.41437 7.89531 2.49368 5.37864 2.49368H5.37765Z" fill="#BBBBBB" fill-opacity="0.7"/>
</svg>
