<svg width="20" height="20" viewBox="0 0 20 20" fill="none" xmlns="http://www.w3.org/2000/svg">
<path d="M10 18.0317H9.98833C7.83583 17.9917 1.625 12.38 1.625 7.06502C1.625 4.51169 3.72917 2.27002 6.1275 2.27002C8.03583 2.27002 9.31917 3.58669 9.99917 4.54502C10.6775 3.58835 11.9608 2.27002 13.87 2.27002C16.27 2.27002 18.3733 4.51169 18.3733 7.06585C18.3733 12.3792 12.1617 17.9909 10.0092 18.03H10V18.0317ZM6.12833 3.52085C4.395 3.52085 2.87583 5.17752 2.87583 7.06669C2.87583 11.85 8.7375 16.73 10.0008 16.7817C11.2658 16.73 17.1258 11.8509 17.1258 7.06669C17.1258 5.17752 15.6067 3.52085 13.8733 3.52085C11.7667 3.52085 10.59 5.96752 10.58 5.99169C10.3883 6.46002 9.61667 6.46002 9.42417 5.99169C9.4125 5.96669 8.23667 3.52085 6.12917 3.52085H6.12833Z" fill="#BBBBBB" fill-opacity="0.7"/>
</svg>
