<svg width="20" height="20" viewBox="0 0 20 20" fill="none" xmlns="http://www.w3.org/2000/svg">
<path d="M9.97703 12.9017C9.90979 12.9017 9.84055 12.8918 9.77332 12.8748C8.63937 12.5573 7.66899 11.8903 6.96855 10.9457C6.13364 9.82245 5.78844 8.44156 5.99717 7.05867C6.2059 5.67578 6.94246 4.45765 8.0724 3.62592L11.6147 1.0219C13.9448 -0.691484 17.2443 -0.200235 18.9703 2.12022C19.8032 3.2455 20.1495 4.62639 19.9407 6.00927C19.732 7.39216 18.9944 8.6103 17.8635 9.44203L16.3783 10.5344C16.0442 10.78 15.5715 10.7091 15.3246 10.3766C15.0778 10.0431 15.148 9.57383 15.4832 9.3282L16.9684 8.23487C17.7742 7.64378 18.3 6.7741 18.4495 5.78861C18.598 4.80212 18.3512 3.81663 17.7571 3.01485C16.5278 1.36138 14.1726 1.00792 12.5088 2.23205L8.96651 4.83607C8.16171 5.42816 7.63587 6.29783 7.48635 7.28233C7.33583 8.27082 7.58369 9.25431 8.17877 10.0561C8.67851 10.7301 9.36991 11.2043 10.1777 11.431C10.5791 11.5448 10.8129 11.9582 10.6995 12.3576C10.6072 12.6871 10.3042 12.9037 9.97502 12.9037L9.97703 12.9017Z" fill="#C8C8C8"/>
<path d="M5.27057 20.0001C3.65495 20.0001 2.0624 19.2662 1.03081 17.8783C0.1959 16.7531 -0.149302 15.3722 0.0594247 13.9903C0.268152 12.6084 1.00572 11.3893 2.13666 10.5575L3.61982 9.4652C3.95499 9.22058 4.42764 9.29047 4.67349 9.62296C4.91935 9.95545 4.85111 10.4257 4.51594 10.6714L3.03077 11.7647C2.22497 12.3568 1.70014 13.2265 1.55062 14.211C1.4021 15.1994 1.64796 16.1829 2.24303 16.9847C3.47231 18.6392 5.8255 18.9916 7.4913 17.7685L11.0316 15.1645C12.6954 13.9414 13.0487 11.5999 11.8194 9.94247C11.3196 9.2695 10.6282 8.79423 9.82041 8.56857C9.41902 8.45575 9.1852 8.04238 9.2986 7.64299C9.41099 7.2436 9.82844 7.01395 10.2278 7.12179C11.3618 7.4393 12.3312 8.10628 13.0316 9.05084C14.7546 11.3713 14.2599 14.6543 11.9278 16.3696L8.38542 18.9737C7.44916 19.6656 6.35535 19.9981 5.26957 19.9981L5.27057 20.0001Z" fill="#C8C8C8"/>
</svg>
