<svg width="20" height="20" viewBox="0 0 20 20" fill="none" xmlns="http://www.w3.org/2000/svg">
<path d="M11.8911 1.00911L8.11068 1H8.10886C4.12243 1 1 4.12334 1 8.11068C1 11.8456 3.9037 14.6782 7.80354 14.8276V18.3165C7.80354 18.4149 7.84365 18.5771 7.91291 18.6837C8.04233 18.8888 8.26289 19 8.48891 19C8.61468 19 8.74137 18.9654 8.85529 18.8925C9.0959 18.7393 14.7547 15.1193 16.2266 13.8743C17.9601 12.407 18.9973 10.2561 19 8.12162V8.10613C18.9945 4.12608 15.8739 1.00911 11.8911 1.0082V1.00911ZM15.3426 12.8317C14.3091 13.7066 10.9114 15.935 9.17063 17.0633V14.1587C9.17063 13.7814 8.86532 13.4751 8.48709 13.4751H8.12618C4.79048 13.4751 2.368 11.2185 2.368 8.11068C2.368 4.88982 4.89073 2.36709 8.10977 2.36709L11.8893 2.3762H11.8911C15.1102 2.3762 17.6329 4.89711 17.6347 8.11433C17.632 9.85509 16.7762 11.6177 15.3435 12.8317H15.3426Z" fill="#BBBBBB" fill-opacity="0.7"/>
</svg>
