<svg width="20" height="20" viewBox="0 0 20 20" fill="none" xmlns="http://www.w3.org/2000/svg">
<path d="M12.1013 0.0101266L7.90076 0H7.89873C3.46937 0 0 3.47038 0 7.90076C0 12.0506 3.22633 15.198 7.55949 15.364V19.2405C7.55949 19.3499 7.60405 19.5301 7.68101 19.6486C7.82481 19.8765 8.06987 20 8.32101 20C8.46076 20 8.60152 19.9615 8.7281 19.8805C8.99544 19.7104 15.283 15.6881 16.9185 14.3048C18.8446 12.6744 19.997 10.2846 20 7.91291V7.8957C19.9939 3.47342 16.5266 0.0101264 12.1013 0.00911375V0.0101266ZM15.9362 13.1463C14.7878 14.1185 11.0127 16.5944 9.07848 17.8481V14.6208C9.07848 14.2015 8.73924 13.8613 8.31899 13.8613H7.91798C4.21165 13.8613 1.52 11.3539 1.52 7.90076C1.52 4.32203 4.32304 1.51899 7.89975 1.51899L12.0992 1.52911H12.1013C15.678 1.52911 18.481 4.33013 18.483 7.90481C18.48 9.83899 17.5291 11.7975 15.9372 13.1463H15.9362Z" fill="#BBBBBB" fill-opacity="0.7"/>
</svg>
