<svg width="27" height="27" viewBox="0 0 27 27" fill="none" xmlns="http://www.w3.org/2000/svg">
<g clip-path="url(#clip0)">
<g clip-path="url(#clip1)">
<path d="M26.7517 17.2237C26.4229 16.8697 25.8881 16.8697 25.5582 17.2237L23.0585 19.9064V7.53219C23.0585 5.03317 21.1635 3.0006 18.836 3.0006H12.249C11.7829 3.0006 11.4045 3.40663 11.4045 3.90692C11.4045 4.40721 11.7829 4.81324 12.249 4.81324H18.836C20.2323 4.81324 21.3695 6.03375 21.3695 7.53219V19.9064L18.8698 17.2237C18.5399 16.8697 18.0051 16.8697 17.6763 17.2237C17.3475 17.5778 17.3452 18.1518 17.6763 18.5047L21.6172 22.7341C21.7805 22.9118 21.9967 23 22.214 23C22.4313 23 22.6453 22.913 22.8108 22.7341L26.7517 18.5047C27.0828 18.1518 27.0828 17.5778 26.7517 17.2237ZM14.7487 21.1874H8.1617C6.76548 21.1874 5.62824 19.9669 5.62824 18.4684V6.09417L8.12792 8.77687C8.29457 8.9545 8.51076 9.04272 8.72695 9.04272C8.94314 9.04272 9.15933 8.9545 9.32372 8.77687C9.65363 8.4228 9.65363 7.8488 9.32372 7.49594L5.38277 3.26646C5.05286 2.91118 4.51802 2.91118 4.18923 3.26646L0.24828 7.49594C-0.08276 7.8488 -0.08276 8.4228 0.24828 8.77687C0.579319 9.13093 1.11191 9.13093 1.44182 8.77687L3.94151 6.09417V18.4684C3.94151 20.9674 5.83654 23 8.16396 23H14.751C15.2171 23 15.5955 22.594 15.5955 22.0937C15.5955 21.5934 15.216 21.1874 14.751 21.1874H14.7487Z" fill="#BBBBBB" fill-opacity="0.7"/>
</g>
</g>
<defs>
<clipPath id="clip0">
<rect width="27" height="27" fill="white"/>
</clipPath>
<clipPath id="clip1">
<rect width="27" height="20" fill="white" transform="translate(0 3)"/>
</clipPath>
</defs>
</svg>
