<svg width="20" height="20" viewBox="0 0 20 20" fill="none" xmlns="http://www.w3.org/2000/svg">
<path d="M15.53 5.30088L10.53 0.223165C10.237 -0.0743885 9.76202 -0.0743885 9.47002 0.223165L4.47001 5.30088C4.17601 5.59843 4.17601 6.08081 4.47001 6.37735C4.76401 6.67389 5.23701 6.67592 5.53002 6.37735L9.25001 2.59953V12.948C9.25001 13.3684 9.58602 13.7096 10 13.7096C10.414 13.7096 10.7501 13.3684 10.7501 12.948V2.59953L14.47 6.37735C14.616 6.52664 14.8081 6.60077 15.0001 6.60077C15.192 6.60077 15.384 6.52765 15.53 6.37735C15.8231 6.0798 15.8231 5.59843 15.53 5.30088Z" fill="#BBBBBB" fill-opacity="0.7"/>
<path d="M17.708 19.9998H2.292C1.028 19.9998 0 18.9558 0 17.6721V11.9324C0 11.5119 0.336 11.1707 0.75 11.1707C1.164 11.1707 1.5 11.5119 1.5 11.9324V17.6721C1.5 18.1159 1.855 18.4764 2.292 18.4764H17.708C18.145 18.4764 18.5 18.1159 18.5 17.6721V11.9324C18.5 11.5119 18.836 11.1707 19.25 11.1707C19.664 11.1707 20 11.5119 20 11.9324V17.6721C20 18.9558 18.972 19.9998 17.708 19.9998Z" fill="#BBBBBB" fill-opacity="0.7"/>
</svg>
