<svg width="20" height="20" viewBox="0 0 20 20" fill="none" xmlns="http://www.w3.org/2000/svg">
<path d="M14.4241 6.24071L10.424 2.17853C10.1897 1.94049 9.80966 1.94049 9.57606 2.17853L5.57606 6.24071C5.34086 6.47875 5.34086 6.86465 5.57606 7.10188C5.81126 7.33911 6.18966 7.34074 6.42406 7.10188L9.40006 4.07963V12.3584C9.40006 12.6947 9.66886 12.9676 10.0001 12.9676C10.3312 12.9676 10.6001 12.6947 10.6001 12.3584V4.07963L13.5761 7.10188C13.6929 7.22131 13.8465 7.28062 14.0001 7.28062C14.1536 7.28062 14.3072 7.22212 14.4241 7.10188C14.6585 6.86384 14.6585 6.47875 14.4241 6.24071Z" fill="#BBBBBB" fill-opacity="0.7"/>
<path d="M16.1664 17.9996H3.8336C2.8224 17.9996 2 17.1644 2 16.1375V11.5456C2 11.2092 2.2688 10.9363 2.6 10.9363C2.9312 10.9363 3.2 11.2092 3.2 11.5456V16.1375C3.2 16.4925 3.484 16.7809 3.8336 16.7809H16.1664C16.516 16.7809 16.8 16.4925 16.8 16.1375V11.5456C16.8 11.2092 17.0688 10.9363 17.4 10.9363C17.7312 10.9363 18 11.2092 18 11.5456V16.1375C18 17.1644 17.1776 17.9996 16.1664 17.9996Z" fill="#BBBBBB" fill-opacity="0.7"/>
</svg>
